<svg width="136" height="185" viewBox="0 0 136 185" fill="none" xmlns="http://www.w3.org/2000/svg">
<path opacity="0.56" d="M66.783 -93.3604C68.9916 -114.094 91.155 -126.307 109.862 -117.099L137.954 -103.272C147.352 -98.6468 158.482 -99.2579 167.317 -104.885L193.726 -121.703C211.313 -132.903 234.68 -123.19 239.145 -102.823L245.85 -72.2396C248.093 -62.008 255.51 -53.6871 265.418 -50.2877L295.033 -40.1265C314.755 -33.3597 321.73 -9.03432 308.591 7.15513L288.86 31.4657C282.259 39.5987 280.378 50.5857 283.898 60.4514L294.418 89.9408C301.424 109.579 286.754 130.199 265.905 130.02L234.596 129.751C224.122 129.661 214.359 135.041 208.84 143.944L192.344 170.555C181.358 188.277 156.09 189.664 143.231 173.252L123.92 148.606C117.46 140.361 107.167 136.082 96.7654 137.318L65.6743 141.013C44.9693 143.473 28.1307 124.583 32.9448 104.296L40.1737 73.832C42.5921 63.6403 39.5197 52.9252 32.0681 45.5637L9.79457 23.5592C-5.03837 8.9055 -0.768259 -16.0372 18.0945 -24.9223L46.4193 -38.2645C55.8953 -42.7281 62.3571 -51.8109 63.4666 -62.2266L66.783 -93.3604Z" fill="#FEF9F1"/>
</svg>
